<svg width="64" height="64" viewBox="0 0 64 64" fill="none" xmlns="http://www.w3.org/2000/svg">
<path d="M58.5558 0H4.66834C2.09131 0 0 2.04212 0 4.55679V58.6771C0 61.1952 2.09131 63.24 4.66834 63.24H58.5558C61.1346 63.24 63.24 61.1952 63.24 58.6771V4.55679C63.24 2.04212 61.1346 0 58.5558 0ZM18.7559 53.8893H9.37182V23.7106H18.7559V53.8893ZM14.0639 19.5842C11.0573 19.5842 8.62699 17.1477 8.62699 14.1438C8.62699 11.1443 11.0573 8.7078 14.0639 8.7078C17.0634 8.7078 19.4999 11.1443 19.4999 14.1438C19.4999 17.1477 17.0634 19.5842 14.0639 19.5842ZM53.8857 53.8893H44.5166V39.2141C44.5166 35.713 44.4481 31.2116 39.6409 31.2116C34.7592 31.2116 34.0152 35.0244 34.0152 38.9602V53.8901H24.639V23.7106H33.6375V27.8317H33.7658C35.0183 25.4602 38.0784 22.9579 42.6422 22.9579C52.1335 22.9579 53.8866 29.2063 53.8866 37.3353L53.8857 53.8893Z" fill="white"/>
</svg>
